:FULLY-SPECIFIED
:FORCE-ALL-JOINTS-BE-3DOF
:DEGREES
170
root 6.50952 16.0708 -25.6595 4.02986 29.6343 1.5213
lfemur -25.6107 31.5448 -16.5975
ltibia 41.2333 -0 0
lfoot -7.86822 10.4082 0.0708505
ltoes 14.6279 -0 0
rfemur -19.9416 -2.6111 -5.62039
rtibia 59.5795 -0 0
rfoot 7.39262 -26.126 -0.376627
rtoes 44.1294 -0 0
lowerback 1.16924 -4.96013 -1.26831
upperback -0.0332614 -6.64635 -2.45361
thorax -0.835724 -3.31972 -1.67515
lowerneck -9.45543 -7.38211 -1.62727
upperneck 1.78159 -9.90273 5.28045
head 2.59466 -4.771 1.45538
lclavicle -9.86966e-014 3.18055e-015 0
lhumerus -50.0747 -41.5329 115.945
lradius 52.4593 -0 0
lwrist 15.5796 0 0
lhand 37.5097 28.8656 -0.0401168
lfingers 7.12502 -0 0
lthumb 60.3117 42.3928 -0.0198356
rclavicle -9.86966e-014 3.18055e-015 0
rhumerus -48.6871 -13.0006 -79.308
rradius 90.0873 -0 0
rwrist -4.8374 0 0
rhand -41.4258 -52.026 0.787389
rfingers 7.12502 -0 0
rthumb -14.4748 -81.3546 0.887054
171
root 6.45494 16.0492 -25.6369 4.30223 29.0933 1.64563
lfemur -24.52 30.6585 -15.4595
ltibia 40.1399 -0 0
lfoot -8.02499 9.4492 0.162342
ltoes 16.1246 -0 0
rfemur -19.0184 -2.09404 -6.10153
rtibia 57.964 -0 0
rfoot 5.99165 -26.0545 -0.773028
rtoes 45.683 -0 0
lowerback 0.774294 -4.86302 -1.14611
upperback -0.11396 -6.50999 -2.61179
thorax -0.7274 -3.25352 -1.9359
lowerneck -9.53402 -7.29206 -1.51008
upperneck 1.88516 -9.79949 5.25552
head 2.63651 -4.71603 1.43324
lclavicle -9.86966e-014 3.18055e-015 0
lhumerus -50.5253 -41.6442 116.263
lradius 52.6263 -0 0
lwrist 15.8354 0 0
lhand 37.893 29.2343 -0.0739571
lfingers 7.12502 -0 0
lthumb 60.6471 42.4612 -0.0370164
rclavicle -9.86966e-014 3.18055e-015 0
rhumerus -49.1084 -10.7735 -78.9648
rradius 91.3322 -0 0
rwrist -5.2741 0 0
rhand -39.0086 -50.5386 1.741
rfingers 7.12502 -0 0
rthumb -12.422 -80.1813 1.96131
172
root 6.39662 16.0268 -25.6137 4.55279 28.4023 1.78584
lfemur -23.2125 29.5157 -14.1701
ltibia 38.8411 -0 0
lfoot -8.26443 8.23942 0.269284
ltoes 17.8089 -0 0
rfemur -18.2751 -1.78137 -6.53114
rtibia 56.4532 -0 0
rfoot 4.45153 -25.6507 -1.17444
rtoes 47.0224 -0 0
lowerback 0.393507 -4.75754 -1.04811
upperback -0.182656 -6.36212 -2.79026
thorax -0.611458 -3.18177 -2.20249
lowerneck -9.64218 -7.15852 -1.37543
upperneck 1.99406 -9.64046 5.2277
head 2.68282 -4.63271 1.41008
lclavicle -9.86966e-014 3.18055e-015 0
lhumerus -50.9274 -41.7249 116.462
lradius 52.7797 -0 0
lwrist 16.0833 0 0
lhand 38.2549 29.5563 -0.101549
lfingers 7.12502 -0 0
lthumb 60.9615 42.4845 -0.0513234
rclavicle -9.86966e-014 3.18055e-015 0
rhumerus -49.6801 -8.1694 -78.595
rradius 92.8576 -0 0
rwrist -5.79079 0 0
rhand -36.0442 -48.6713 2.79066
rfingers 7.12502 -0 0
rthumb -9.9679 -78.9102 3.18157
173
root 6.33502 16.0038 -25.5902 4.78159 27.5766 1.93869
lfemur -21.7373 28.1324 -12.7741
ltibia 37.3608 -0 0
lfoot -8.58158 6.80803 0.385814
ltoes 19.6568 -0 0
rfemur -17.6966 -1.65823 -6.9173
rtibia 55.0434 -0 0
rfoot 2.78716 -24.9427 -1.56531
rtoes 48.1644 -0 0
lowerback 0.0271094 -4.64487 -0.972361
upperback -0.240442 -6.20416 -2.98652
thorax -0.489277 -3.10502 -2.47351
lowerneck -9.77628 -6.98547 -1.225
upperneck 2.10728 -9.43088 5.1972
head 2.7329 -4.52374 1.38592
lclavicle -9.86966e-014 3.18055e-015 0
lhumerus -51.284 -41.7792 116.553
lradius 52.9205 -0 0
lwrist 16.3242 0 0
lhand 38.5957 29.8346 -0.123016
lfingers 7.12502 -0 0
lthumb 61.2553 42.4672 -0.0626406
rclavicle -9.86966e-014 3.18055e-015 0
rhumerus -50.3688 -5.23598 -78.21
rradius 94.6241 -0 0
rwrist -6.37882 0 0
rhand -32.5878 -46.4487 3.86232
rfingers 7.12502 -0 0
rthumb -7.14601 -77.5071 4.50439
174
root 6.27061 15.9802 -25.5665 4.98894 26.6312 2.10136
lfemur -20.1406 26.5265 -11.3137
ltibia 35.723 -0 0
lfoot -8.97127 5.18427 0.505705
ltoes 21.6444 -0 0
rfemur -17.2682 -1.70908 -7.26596
rtibia 53.731 -0 0
rfoot 1.01403 -23.9594 -1.93014
rtoes 49.1259 -0 0
lowerback -0.324678 -4.52617 -0.91692
upperback -0.288404 -6.0375 -3.19807
thorax -0.362231 -3.02386 -2.74753
lowerneck -9.9327 -6.77685 -1.06048
upperneck 2.22385 -9.17604 5.1642
head 2.78609 -4.39182 1.36077
lclavicle -9.86966e-014 3.18055e-015 0
lhumerus -51.5991 -41.8108 116.547
lradius 53.0496 -0 0
lwrist 16.5589 0 0
lhand 38.9156 30.0724 -0.138568
lfingers 7.12502 -0 0
lthumb 61.5289 42.414 -0.0709449
rclavicle -9.86966e-014 3.18055e-015 0
rhumerus -51.1438 -2.02127 -77.8186
rradius 96.5919 -0 0
rwrist -7.02952 0 0
rhand -28.6984 -43.902 4.88176
rfingers 7.12502 -0 0
rthumb -3.98922 -75.9397 5.88363
175
root 6.20385 15.956 -25.5427 5.17539 25.5813 2.2713
lfemur -18.4647 24.7184 -9.82709
ltibia 33.9513 -0 0
lfoot -9.42806 3.39742 0.62267
ltoes 23.7477 -0 0
rfemur -16.9763 -1.91784 -7.58137
rtibia 52.5124 -0 0
rfoot -0.851459 -22.7306 -2.25413
rtoes 49.924 -0 0
lowerback -0.661637 -4.40254 -0.879809
upperback -0.327607 -5.86353 -3.42241
thorax -0.231682 -2.93888 -3.02316
lowerneck -10.1078 -6.53664 -0.883579
upperneck 2.34277 -8.8812 5.12888
head 2.8417 -4.23965 1.33465
lclavicle -9.86966e-014 3.18055e-015 0
lhumerus -51.8764 -41.8235 116.455
lradius 53.1679 -0 0
lwrist 16.7882 0 0
lhand 39.2145 30.2728 -0.148497
lfingers 7.12502 -0 0
lthumb 61.7826 42.3295 -0.0762967
rclavicle -9.86966e-014 3.18055e-015 0
rhumerus -51.9761 1.42635 -77.4264
rradius 98.7214 -0 0
rwrist -7.73426 0 0
rhand -24.4414 -41.0717 5.77866
rfingers 7.12502 -0 0
rthumb -0.53034 -74.1801 7.27026
